<svg width="24" height="24" viewBox="0 0 24 24" fill="none" xmlns="http://www.w3.org/2000/svg">
<path d="M0 13.1209H6.60509C6.81146 16.9401 8.0288 20.6358 10.1326 23.83C7.49743 23.416 5.07375 22.1406 3.24046 20.203C1.40717 18.2654 0.267626 15.7749 0 13.1209ZM0 10.709C0.267626 8.05504 1.40717 5.56456 3.24046 3.62697C5.07375 1.68938 7.49743 0.413916 10.1326 0C8.0288 3.19414 6.81146 6.88988 6.60509 10.709H0ZM23.9988 10.709H17.3937C17.1873 6.88988 15.97 3.19414 13.8662 0C16.5014 0.413916 18.925 1.68938 20.7583 3.62697C22.5916 5.56456 23.7312 8.05504 23.9988 10.709ZM23.9988 13.1209C23.7312 15.7749 22.5916 18.2654 20.7583 20.203C18.925 22.1406 16.5014 23.416 13.8662 23.83C15.97 20.6358 17.1873 16.9401 17.3937 13.1209H24H23.9988ZM9.02065 13.1209H14.9781C14.7796 16.3764 13.7544 19.5276 11.9994 22.2767C10.2443 19.5276 9.21915 16.3764 9.02065 13.1209ZM9.02065 10.709C9.21915 7.45351 10.2443 4.30237 11.9994 1.55329C13.7544 4.30237 14.7796 7.45351 14.9781 10.709H9.02065Z" fill="white"/>
</svg>
