<svg width="54" height="54" viewBox="0 0 54 54" fill="none" xmlns="http://www.w3.org/2000/svg">
<circle cx="26.5" cy="26.5" r="13.5" fill="white"/>
<path d="M26.6667 53.3333C11.9387 53.3333 0 41.3947 0 26.6667C0 11.9387 11.9387 0 26.6667 0C41.3947 0 53.3333 11.9387 53.3333 26.6667C53.3333 41.3947 41.3947 53.3333 26.6667 53.3333ZM22.992 17.1067C22.8315 16.9996 22.645 16.938 22.4523 16.9286C22.2596 16.9191 22.0679 16.9621 21.8977 17.053C21.7275 17.1438 21.5851 17.2791 21.4858 17.4445C21.3864 17.6098 21.3337 17.7991 21.3333 17.992V35.3413C21.3337 35.5343 21.3864 35.7235 21.4858 35.8889C21.5851 36.0542 21.7275 36.1895 21.8977 36.2804C22.0679 36.3712 22.2596 36.4142 22.4523 36.4047C22.645 36.3953 22.8315 36.3337 22.992 36.2267L36.0027 27.5547C36.149 27.4573 36.269 27.3253 36.352 27.1704C36.435 27.0154 36.4784 26.8424 36.4784 26.6667C36.4784 26.4909 36.435 26.3179 36.352 26.163C36.269 26.008 36.149 25.876 36.0027 25.7787L22.9893 17.1067H22.992Z" fill="#FF3B30"/>
</svg>
