<svg width="24" height="24" viewBox="0 0 24 24" fill="none" xmlns="http://www.w3.org/2000/svg">
<path d="M23.9366 8.61721C23.8611 8.39505 23.7223 8.19984 23.5372 8.05568C23.3521 7.91152 23.1288 7.82472 22.895 7.80601L16.0537 7.2624L13.0933 0.709165C12.999 0.498099 12.8457 0.318829 12.6518 0.192991C12.4578 0.0671538 12.2317 0.000127056 12.0005 1.80455e-07C11.7693 -0.000126695 11.5431 0.0666518 11.349 0.192276C11.155 0.317901 11.0014 0.497002 10.9069 0.707965L7.94648 7.2624L1.10524 7.80601C0.875383 7.82422 0.655641 7.90826 0.4723 8.04809C0.28896 8.18791 0.149784 8.37759 0.0714237 8.59445C-0.0069365 8.8113 -0.0211633 9.04613 0.0304456 9.27086C0.0820545 9.49558 0.197314 9.70068 0.362434 9.86162L5.41806 14.79L3.63005 22.5325C3.57576 22.7669 3.59316 23.0121 3.68 23.2365C3.76683 23.4608 3.91909 23.6539 4.11702 23.7906C4.31494 23.9274 4.5494 24.0015 4.78996 24.0033C5.03052 24.0051 5.26608 23.9346 5.46606 23.8009L12.0001 19.4449L18.5341 23.8009C18.7385 23.9366 18.9796 24.0065 19.2249 24.0011C19.4702 23.9957 19.708 23.9154 19.9062 23.7708C20.1045 23.6263 20.2537 23.4245 20.3339 23.1926C20.414 22.9607 20.4212 22.7098 20.3545 22.4737L18.1597 14.7936L23.603 9.89522C23.9594 9.57362 24.0902 9.07201 23.9366 8.61721Z" fill="white"/>
</svg>
