<svg width="24" height="24" viewBox="0 0 24 24" fill="none" xmlns="http://www.w3.org/2000/svg">
<path d="M19.2012 21.6H21.6V24H12C5.3724 24 0 18.6276 0 12C0 5.3724 5.3724 0 12 0C18.6276 0 24 5.3724 24 12C24.0015 13.8631 23.5686 15.7009 22.7356 17.3673C21.9025 19.0338 20.6924 20.4831 19.2012 21.6ZM12 9.6C12.6365 9.6 13.247 9.34714 13.6971 8.89705C14.1471 8.44697 14.4 7.83652 14.4 7.2C14.4 6.56348 14.1471 5.95303 13.6971 5.50294C13.247 5.05286 12.6365 4.8 12 4.8C11.3635 4.8 10.753 5.05286 10.3029 5.50294C9.85286 5.95303 9.6 6.56348 9.6 7.2C9.6 7.83652 9.85286 8.44697 10.3029 8.89705C10.753 9.34714 11.3635 9.6 12 9.6ZM7.2 14.4C7.83652 14.4 8.44697 14.1471 8.89705 13.6971C9.34714 13.247 9.6 12.6365 9.6 12C9.6 11.3635 9.34714 10.753 8.89705 10.3029C8.44697 9.85286 7.83652 9.6 7.2 9.6C6.56348 9.6 5.95303 9.85286 5.50294 10.3029C5.05286 10.753 4.8 11.3635 4.8 12C4.8 12.6365 5.05286 13.247 5.50294 13.6971C5.95303 14.1471 6.56348 14.4 7.2 14.4ZM16.8 14.4C17.4365 14.4 18.047 14.1471 18.4971 13.6971C18.9471 13.247 19.2 12.6365 19.2 12C19.2 11.3635 18.9471 10.753 18.4971 10.3029C18.047 9.85286 17.4365 9.6 16.8 9.6C16.1635 9.6 15.553 9.85286 15.1029 10.3029C14.6529 10.753 14.4 11.3635 14.4 12C14.4 12.6365 14.6529 13.247 15.1029 13.6971C15.553 14.1471 16.1635 14.4 16.8 14.4ZM12 19.2C12.6365 19.2 13.247 18.9471 13.6971 18.4971C14.1471 18.047 14.4 17.4365 14.4 16.8C14.4 16.1635 14.1471 15.553 13.6971 15.1029C13.247 14.6529 12.6365 14.4 12 14.4C11.3635 14.4 10.753 14.6529 10.3029 15.1029C9.85286 15.553 9.6 16.1635 9.6 16.8C9.6 17.4365 9.85286 18.047 10.3029 18.4971C10.753 18.9471 11.3635 19.2 12 19.2Z" fill="white"/>
</svg>
